<svg id="Calque_1" data-name="Calque 1" xmlns="http://www.w3.org/2000/svg" viewBox="0 0 424.26 32.41"><defs><style>.cls-1{fill:#3b5998;}.cls-2{fill:#007ab9;}.cls-3{fill:#55acee;}.cls-4{fill:#dc4e41;}.cls-5{fill:none;}.cls-6{fill:#fff;}.cls-7{fill:#f1f2f2;}</style></defs><title>Logo</title><rect class="cls-1" width="99.69" height="32.41" rx="12" ry="12"/><rect class="cls-2" x="108.19" width="99.69" height="32.41" rx="12" ry="12"/><rect class="cls-3" x="216.38" width="99.69" height="32.41" rx="12" ry="12"/><rect class="cls-4" x="324.57" width="99.69" height="32.41" rx="12" ry="12"/><path class="cls-5" d="M151.35,417.1c-1.73,0-2.59,1.6-2.59,3.37s.93,3.28,2.57,3.28,2.59-1.53,2.59-3.36C153.92,418.78,153.08,417.1,151.35,417.1Z" transform="translate(-86.81 -405.57)"/><path class="cls-5" d="M143.52,420.59h-.86v3.08a5,5,0,0,0,.87.05c1.08,0,2.08-.39,2.08-1.57S144.66,420.59,143.52,420.59Z" transform="translate(-86.81 -405.57)"/><path class="cls-5" d="M124.33,417.31h0c-.12.48-.25,1-.41,1.46l-.79,2.34h2.44l-.8-2.33C124.57,418.25,124.45,417.77,124.33,417.31Z" transform="translate(-86.81 -405.57)"/><path class="cls-5" d="M145.36,418.45c0-.95-.72-1.32-1.78-1.32a4.21,4.21,0,0,0-.92.07v2.6h1C144.71,419.8,145.36,419.23,145.36,418.45Z" transform="translate(-86.81 -405.57)"/><path class="cls-5" d="M159.61,417.1c-1.72,0-2.59,1.6-2.59,3.37s.94,3.28,2.58,3.28,2.59-1.53,2.59-3.36C162.19,418.78,161.35,417.1,159.61,417.1Z" transform="translate(-86.81 -405.57)"/><path class="cls-6" d="M104.48,416.43v1.77H103v2.73h1.53v7.77h3.21v-7.77h2.12l.28-2.73h-2.4v-1.6a.66.66,0,0,1,.68-.75h1.73V413.2h-2.38A3,3,0,0,0,104.48,416.43Z" transform="translate(-86.81 -405.57)"/><polygon class="cls-6" points="30.91 11.69 34.22 11.69 34.22 10.82 29.87 10.82 29.87 18.9 30.91 18.9 30.91 15.24 33.97 15.24 33.97 14.38 30.91 14.38 30.91 11.69"/><path class="cls-6" d="M123.72,416.38,121,424.47h1.08l.83-2.55h2.87l.86,2.55h1.12L125,416.38Zm-.61,4.73.79-2.34c.16-.49.29-1,.41-1.46h0c.12.46.24.94.42,1.47l.8,2.33Z" transform="translate(-86.81 -405.57)"/><path class="cls-6" d="M132.53,417.13a3.85,3.85,0,0,1,1.63.33l.25-.85a4.37,4.37,0,0,0-1.92-.36,4,4,0,0,0-4.22,4.25,3.78,3.78,0,0,0,4,4.09,5.16,5.16,0,0,0,2.13-.39l-.22-.82a4.22,4.22,0,0,1-1.7.33,2.93,2.93,0,0,1-3.1-3.25A3,3,0,0,1,132.53,417.13Z" transform="translate(-86.81 -405.57)"/><polygon class="cls-6" points="49.94 15.11 53.08 15.11 53.08 14.25 49.94 14.25 49.94 11.69 53.26 11.69 53.26 10.82 48.9 10.82 48.9 18.9 53.44 18.9 53.44 18.02 49.94 18.02 49.94 15.11"/><path class="cls-6" d="M145.05,420.14v0a1.91,1.91,0,0,0,1.36-1.77,1.69,1.69,0,0,0-.67-1.43,3.31,3.31,0,0,0-2.22-.59,10.49,10.49,0,0,0-1.9.17v7.95a11.46,11.46,0,0,0,1.61.1,4,4,0,0,0,2.8-.76,2.15,2.15,0,0,0,.68-1.62A2.07,2.07,0,0,0,145.05,420.14Zm-2.39-2.94a4.21,4.21,0,0,1,.92-.07c1.06,0,1.78.37,1.78,1.32,0,.78-.65,1.35-1.75,1.35h-1Zm.87,6.52a5,5,0,0,1-.87-.05v-3.08h.86c1.14,0,2.09.46,2.09,1.56S144.61,423.72,143.53,423.72Z" transform="translate(-86.81 -405.57)"/><path class="cls-6" d="M151.39,416.25c-2.16,0-3.75,1.68-3.75,4.25s1.5,4.1,3.63,4.1,3.76-1.48,3.76-4.26C155,417.94,153.6,416.25,151.39,416.25Zm-.06,7.5c-1.64,0-2.57-1.55-2.57-3.28s.86-3.37,2.59-3.37,2.57,1.68,2.57,3.29C153.92,422.22,153,423.75,151.33,423.75Z" transform="translate(-86.81 -405.57)"/><path class="cls-6" d="M159.66,416.25c-2.16,0-3.75,1.68-3.75,4.25s1.5,4.1,3.63,4.1,3.76-1.48,3.76-4.26C163.3,417.94,161.87,416.25,159.66,416.25Zm-.06,7.5c-1.64,0-2.58-1.55-2.58-3.28s.87-3.37,2.59-3.37,2.58,1.68,2.58,3.29C162.19,422.22,161.26,423.75,159.6,423.75Z" transform="translate(-86.81 -405.57)"/><path class="cls-6" d="M167.21,419.81l2.93-3.43h-1.3l-2.47,3c-.2.26-.42.55-.64.86h0v-3.9h-1v8.09h1v-3.09l.77-.88,2.66,4h1.23Z" transform="translate(-86.81 -405.57)"/><path class="cls-5" d="M263.36,418a5.89,5.89,0,0,0-1.22.11v6.38a6.38,6.38,0,0,0,1.06.06,3.11,3.11,0,0,0,3.44-3.43C266.65,419.19,265.57,418,263.36,418Z" transform="translate(-86.81 -405.57)"/><path class="cls-5" d="M219.52,418.74v0l0,0Z" transform="translate(-86.81 -405.57)"/><path class="cls-7" d="M222.22,417.22a3,3,0,0,0-2.7,1.49v0h0l0,0v-1.28h-3c0,.85,0,9,0,9h3v-5.05a2.28,2.28,0,0,1,.09-.73,1.66,1.66,0,0,1,1.55-1.1c1.08,0,1.52.83,1.52,2v4.84h3v-5.18C225.68,418.51,224.2,417.22,222.22,417.22Z" transform="translate(-86.81 -405.57)"/><path class="cls-7" d="M213.37,413.08a1.56,1.56,0,1,0,0,3.12h0a1.57,1.57,0,1,0,0-3.12Z" transform="translate(-86.81 -405.57)"/><rect class="cls-7" x="125.03" y="11.87" width="3" height="9.03"/><polygon class="cls-6" points="146.49 11.64 145.45 11.64 145.45 19.73 149.95 19.73 149.95 18.85 146.49 18.85 146.49 11.64"/><rect class="cls-6" x="151.11" y="11.64" width="1.04" height="8.08"/><path class="cls-6" d="M245.88,420.59c0,1.26,0,2.25.12,3.33h0a22.28,22.28,0,0,0-1.45-2.63l-2.59-4.09h-1.14v8.09h1v-3.46c0-1.34,0-2.31-.09-3.33l0,0a26.34,26.34,0,0,0,1.51,2.7l2.57,4.11h1.05v-8.09h-1Z" transform="translate(-86.81 -405.57)"/><path class="cls-6" d="M254.17,417.21h-1.3l-2.47,3c-.2.26-.42.55-.63.86h0v-3.9h-1v8.09h1v-3.09l.77-.88,2.66,4h1.24l-3.16-4.66Z" transform="translate(-86.81 -405.57)"/><polygon class="cls-6" points="169.42 15.94 172.56 15.94 172.56 15.07 169.42 15.07 169.42 12.52 172.75 12.52 172.75 11.64 168.38 11.64 168.38 19.73 172.93 19.73 172.93 18.85 169.42 18.85 169.42 15.94"/><path class="cls-6" d="M263.32,417.15a14.33,14.33,0,0,0-2.22.17v7.95a16.58,16.58,0,0,0,1.89.1,5,5,0,0,0,3.58-1.17,4.28,4.28,0,0,0,1.16-3.14,3.71,3.71,0,0,0-1.14-2.9A4.64,4.64,0,0,0,263.32,417.15Zm-.12,7.38a6.38,6.38,0,0,1-1.06-.06v-6.38a5.89,5.89,0,0,1,1.22-.11c2.21,0,3.29,1.21,3.28,3.12A3.11,3.11,0,0,1,263.2,424.53Z" transform="translate(-86.81 -405.57)"/><rect class="cls-6" x="182.28" y="11.64" width="1.04" height="8.08"/><path class="cls-6" d="M277,417.21v3.38c0,1.26,0,2.25.12,3.33h0a23.83,23.83,0,0,0-1.45-2.63l-2.59-4.09H272v8.09h1v-3.46c0-1.34,0-2.31-.08-3.33l0,0a26.34,26.34,0,0,0,1.51,2.7L277,425.3H278v-8.09Z" transform="translate(-86.81 -405.57)"/><path class="cls-5" d="M382.44,417.13a4.3,4.3,0,0,0-1,.09v2.95h1.07c1.11,0,1.82-.61,1.82-1.53S383.55,417.14,382.44,417.13Z" transform="translate(-86.81 -405.57)"/><path class="cls-7" d="M335.59,414.85a6.37,6.37,0,0,1-2,.77,3.2,3.2,0,0,0-5.53,2.19,3,3,0,0,0,.09.73,9.06,9.06,0,0,1-6.59-3.34,3.13,3.13,0,0,0-.44,1.61,3.22,3.22,0,0,0,1.43,2.66,3.2,3.2,0,0,1-1.45-.4v0a3.19,3.19,0,0,0,2.56,3.13,3.28,3.28,0,0,1-.84.11,3.83,3.83,0,0,1-.6-.05,3.21,3.21,0,0,0,3,2.22,6.6,6.6,0,0,1-4.74,1.32,9.09,9.09,0,0,0,14-7.66c0-.14,0-.28,0-.41a6.61,6.61,0,0,0,1.59-1.66,6.3,6.3,0,0,1-1.83.51A3.24,3.24,0,0,0,335.59,414.85Z" transform="translate(-86.81 -405.57)"/><polygon class="cls-6" points="254.88 11.7 257.34 11.7 257.34 18.9 258.39 18.9 258.39 11.7 260.86 11.7 260.86 10.82 254.88 10.82 254.88 11.7"/><path class="cls-6" d="M356.06,420.46c-.25,1-.48,1.91-.64,2.79h0c-.12-.85-.33-1.81-.56-2.77l-1-4.1h-1.09l-1.08,4.08c-.27,1-.52,2-.66,2.81h0c-.14-.78-.36-1.79-.6-2.8l-1-4.09h-1.1l2.05,8.09h1.09l1.15-4.21a24.73,24.73,0,0,0,.62-2.64h0a23.2,23.2,0,0,0,.53,2.64l1,4.21h1.09l2.29-8.09h-1.07Z" transform="translate(-86.81 -405.57)"/><rect class="cls-6" x="272.4" y="10.82" width="1.04" height="8.08"/><polygon class="cls-6" points="274.34 11.7 276.8 11.7 276.8 18.9 277.86 18.9 277.86 11.7 280.33 11.7 280.33 10.82 274.34 10.82 274.34 11.7"/><polygon class="cls-6" points="280.76 11.7 283.22 11.7 283.22 18.9 284.28 18.9 284.28 11.7 286.75 11.7 286.75 10.82 280.76 10.82 280.76 11.7"/><polygon class="cls-6" points="288.69 15.11 291.84 15.11 291.84 14.25 288.69 14.25 288.69 11.69 292.02 11.69 292.02 10.82 287.65 10.82 287.65 18.9 292.19 18.9 292.19 18.02 288.69 18.02 288.69 15.11"/><path class="cls-6" d="M385,422.25a2,2,0,0,0-1.19-1.63v0a2.12,2.12,0,0,0,1.52-2.06,2,2,0,0,0-.63-1.54,3.34,3.34,0,0,0-2.34-.66,10.58,10.58,0,0,0-2,.17v8h1V421h1c.95,0,1.38.46,1.62,1.58a11.07,11.07,0,0,0,.54,1.93h1.08A12.6,12.6,0,0,1,385,422.25Zm-2.53-2.08h-1.07v-2.95a4.3,4.3,0,0,1,1-.09c1.11,0,1.86.46,1.86,1.51S383.59,420.17,382.48,420.17Z" transform="translate(-86.81 -405.57)"/><path class="cls-5" d="M458.08,417.1c-1.72,0-2.59,1.6-2.59,3.37s.94,3.28,2.58,3.28,2.59-1.53,2.59-3.36C460.66,418.78,459.82,417.1,458.08,417.1Z" transform="translate(-86.81 -405.57)"/><path class="cls-5" d="M466.35,417.1c-1.73,0-2.59,1.6-2.59,3.37s.94,3.28,2.58,3.28,2.59-1.53,2.59-3.36C468.93,418.78,468.09,417.1,466.35,417.1Z" transform="translate(-86.81 -405.57)"/><path class="cls-4" d="M428.87,422h0c1,0,2.07,0,3.11,0h0C430.94,422,429.9,422.05,428.87,422Z" transform="translate(-86.81 -405.57)"/><path class="cls-4" d="M423.7,422.61a5.14,5.14,0,0,1-.25-1.66A5.14,5.14,0,0,0,423.7,422.61Z" transform="translate(-86.81 -405.57)"/><path class="cls-4" d="M427.91,417.66a3.43,3.43,0,0,0-2.22,4.38,3.16,3.16,0,0,0,.69,1.21,3.2,3.2,0,0,1-.69-1.2,3.44,3.44,0,0,1,2.22-4.39,3.79,3.79,0,0,1,3.2.63c.49-.45.94-.93,1.38-1.42h0c-.44.49-.89,1-1.38,1.42A3.79,3.79,0,0,0,427.91,417.66Z" transform="translate(-86.81 -405.57)"/><path class="cls-4" d="M434.05,420.18a6.12,6.12,0,0,1-1.09,4.34,5.35,5.35,0,0,1-5.85,1.56,5.41,5.41,0,0,1-3.09-2.7,5.41,5.41,0,0,0,3.09,2.7,5.35,5.35,0,0,0,5.85-1.56,6.12,6.12,0,0,0,1.09-4.34Z" transform="translate(-86.81 -405.57)"/><path class="cls-4" d="M439,423.28h-1.54c0-.52,0-1,0-1.55h0c0,.52,0,1,0,1.55H439c0-.51,0-1,0-1.55h0C439,422.25,439,422.76,439,423.28Z" transform="translate(-86.81 -405.57)"/><path class="cls-6" d="M427.11,426.08a5.35,5.35,0,0,0,5.85-1.56,6.12,6.12,0,0,0,1.09-4.34h-5.18c0,.62,0,1.24,0,1.85h0c1,0,2.07,0,3.11,0h0a3,3,0,0,1-1.76,2.05,3.45,3.45,0,0,1-3.84-.86,3.16,3.16,0,0,1-.69-1.21,3.43,3.43,0,0,1,2.22-4.38,3.79,3.79,0,0,1,3.2.63c.49-.45.94-.93,1.38-1.42h0a5.48,5.48,0,0,0-9,3.05,4.43,4.43,0,0,0-.07,1,5.14,5.14,0,0,0,.25,1.66,4.31,4.31,0,0,0,.32.77A5.41,5.41,0,0,0,427.11,426.08Z" transform="translate(-86.81 -405.57)"/><path class="cls-6" d="M439,418.62h-1.54c0,.52,0,1,0,1.55h-1.55v1.54h1.55c0,.52,0,1,0,1.55H439c0-.52,0-1,0-1.55h1.55v-1.54H439C439,419.65,439,419.14,439,418.62Z" transform="translate(-86.81 -405.57)"/><path class="cls-6" d="M450.59,421.06h1.65v2.41a3.39,3.39,0,0,1-1.39.22,3,3,0,0,1-3.12-3.27,3,3,0,0,1,3.25-3.25,4.19,4.19,0,0,1,1.78.35l.26-.85a5,5,0,0,0-2-.37,4.06,4.06,0,0,0-4.38,4.17,4.18,4.18,0,0,0,1.13,3,4.14,4.14,0,0,0,3,1.07,7.78,7.78,0,0,0,2.49-.44v-3.89h-2.67Z" transform="translate(-86.81 -405.57)"/><path class="cls-6" d="M458.13,416.25c-2.16,0-3.75,1.68-3.75,4.25s1.5,4.1,3.63,4.1,3.75-1.48,3.75-4.26C461.76,417.94,460.34,416.25,458.13,416.25Zm-.06,7.5c-1.64,0-2.58-1.55-2.58-3.28s.87-3.37,2.59-3.37,2.58,1.68,2.58,3.29C460.66,422.22,459.73,423.75,458.07,423.75Z" transform="translate(-86.81 -405.57)"/><path class="cls-6" d="M466.4,416.25c-2.16,0-3.76,1.68-3.76,4.25s1.5,4.1,3.64,4.1,3.75-1.48,3.75-4.26C470,417.94,468.61,416.25,466.4,416.25Zm-.06,7.5c-1.64,0-2.58-1.55-2.58-3.28s.86-3.37,2.59-3.37,2.58,1.68,2.58,3.29C468.93,422.22,468,423.75,466.34,423.75Z" transform="translate(-86.81 -405.57)"/><path class="cls-6" d="M474.88,421.06h1.65v2.41a3.41,3.41,0,0,1-1.4.22,3,3,0,0,1-3.11-3.27,3,3,0,0,1,3.25-3.25,4.19,4.19,0,0,1,1.78.35l.25-.85a4.89,4.89,0,0,0-2-.37,4.05,4.05,0,0,0-4.38,4.17,3.8,3.8,0,0,0,4.15,4.08,7.71,7.71,0,0,0,2.48-.44v-3.89h-2.66Z" transform="translate(-86.81 -405.57)"/><polygon class="cls-6" points="393.37 10.82 392.33 10.82 392.33 18.9 396.83 18.9 396.83 18.02 393.37 18.02 393.37 10.82"/><polygon class="cls-6" points="399.04 15.11 402.18 15.11 402.18 14.25 399.04 14.25 399.04 11.69 402.36 11.69 402.36 10.82 397.99 10.82 397.99 18.9 402.54 18.9 402.54 18.02 399.04 18.02 399.04 15.11"/><polygon class="cls-6" points="409.49 15.34 409.49 12.52 408.72 12.52 408.72 15.34 406.01 15.34 406.01 16.06 408.72 16.06 408.72 18.9 409.49 18.9 409.49 16.06 412.2 16.06 412.2 15.34 409.49 15.34"/></svg>