<?xml version="1.0" encoding="utf-8"?>
<!-- Generator: Adobe Illustrator 22.1.0, SVG Export Plug-In . SVG Version: 6.00 Build 0)  -->
<svg version="1.1" id="Calque_1" xmlns="http://www.w3.org/2000/svg" xmlns:xlink="http://www.w3.org/1999/xlink" x="0px" y="0px"
	 viewBox="0 0 140 80" style="enable-background:new 0 0 140 80;" xml:space="preserve">
<style type="text/css">
	.st0{fill:#F69931;}
	.st1{fill:#9895A2;}
</style>
<g>
	<polygon class="st0" points="16.9,76.2 18,76.2 23.3,70.9 22.2,70.9 	"/>
	<polygon class="st0" points="34.5,58.6 35.6,58.6 46.7,47.5 46.7,46.4 	"/>
	<polygon class="st0" points="68.2,24.9 68.2,26 90.4,3.8 89.2,3.8 	"/>
	<polygon class="st0" points="27.1,3.8 25.3,3.8 43.8,22.3 43.8,20.5 	"/>
	<polygon class="st0" points="70.3,48.3 70.3,50.1 79.5,58.9 81.3,58.9 	"/>
	<path class="st0" d="M57.5,23.9C51.7,24.1,47,29.1,47,35.1c0,2.5,0.8,4.8,2.2,6.6l8.4,11.6l8.3-12c1.3-1.9,2.1-4.2,2.1-6.7
		C68,28.5,63.3,23.8,57.5,23.9z M57.6,41.6c-3.6,0.1-6.5-2.9-6.6-6.6c0-3.7,2.9-6.8,6.5-6.9c3.6-0.1,6.5,2.8,6.6,6.6
		C64.1,38.4,61.2,41.5,57.6,41.6z"/>
	<path class="st0" d="M12.3,34.3c0.9-0.1,1.5-0.6,2-1.4c0.2-0.4,0.3-0.9,0.4-1.5c0-1.2-0.4-2-1.3-2.6c-0.9-0.6-2-0.8-3.5-0.8H4.4
		v0.2h0.2c0.3,0,0.6,0.1,0.8,0.4c0.2,0.2,0.4,0.5,0.4,0.9v9.3v3.2h4.5c1.6,0,2.9-0.3,3.9-1c0.9-0.7,1.4-1.6,1.4-2.9
		c0-1-0.3-1.9-0.9-2.6C14.1,34.8,13.3,34.4,12.3,34.3 M11.6,40.1c-0.5,0.5-1.2,0.8-2.1,0.8h0H8.7V28.8h0.5c1.6,0,2.4,0.9,2.4,2.8
		c0,0.9-0.2,1.6-0.7,2.1c-0.4,0.4-1,0.7-1.6,0.7v0.2c0.9,0,1.7,0.3,2.2,0.8c0.6,0.5,0.9,1.3,0.9,2.4C12.4,38.8,12.2,39.6,11.6,40.1"
		/>
	<path class="st0" d="M31,28.1v-0.2h-3.9v0.2h0.3c0.2,0,0.3,0,0.5,0.1c0.3,0.2,0.5,0.4,0.5,0.8v7.7c0,1.3-0.4,2.3-1,3.1
		c-0.7,0.8-1.6,1.1-2.7,1.1c-1.1,0-2-0.4-2.7-1.2c-0.7-0.8-1-1.9-1-3.3v-7.4c0-0.3,0.1-0.5,0.3-0.7c0.2-0.2,0.4-0.3,0.7-0.3h0.3
		v-0.2h-5.4v0.2h0.3c0.2,0,0.3,0,0.5,0.1c0.3,0.2,0.5,0.5,0.5,0.9v7.5c0,1.6,0.5,2.9,1.6,3.8c1.1,0.9,2.6,1.4,4.5,1.4
		c1.7,0,3-0.5,4-1.4c1-0.9,1.4-2.2,1.4-3.8V29c0-0.3,0.1-0.5,0.3-0.6c0.2-0.2,0.4-0.3,0.7-0.3H31z"/>
	<path class="st0" d="M42.6,37.2c-0.6-0.9-1.2-1.5-1.9-1.7c1-0.1,1.8-0.5,2.3-1.3c0.5-0.7,0.8-1.5,0.8-2.3c0-0.8-0.1-1.4-0.4-1.9
		c-0.3-0.5-0.6-0.9-1-1.2c-0.8-0.6-1.9-0.8-3.1-0.8h-6.4v0.2h0.2c0.3,0,0.6,0.1,0.8,0.4c0.2,0.2,0.3,0.5,0.3,0.9v12.5h2.8v-3.2h0
		v-9.8h0.1H38h0.6c0.7,0,1.2,0.3,1.6,0.7c0.4,0.5,0.6,1.3,0.6,2.4c0,0.2,0,0.4-0.1,0.7c-0.2,0.8-0.4,1.4-0.9,1.7
		c-0.4,0.4-0.9,0.5-1.5,0.5h-0.6v0.2c0.5,0.1,0.9,0.5,1.3,1.3c0.8,1.8,1.3,3,1.6,3.4c0.4,0.8,1,1.3,1.7,1.6c0.7,0.3,1.6,0.5,2.7,0.5
		h1.8v-0.2c-0.5,0-0.9-0.1-1.2-0.3C45,40.9,44,39.5,42.6,37.2"/>
	<path d="M16.9,62h1.8c1.5,0,2.3,0.5,2.3,1.4c0,0.8-0.4,1.2-1.3,1.4l-0.1,0l0.1,0c0.5,0.1,0.8,0.2,0.9,0.4c0.1,0.1,0.3,0.5,0.5,1.1
		l0.3,0.7c0,0.1,0.1,0.3,0.2,0.4h-0.9c-0.1-0.1-0.1-0.2-0.1-0.3l-0.3-0.8c-0.2-0.5-0.4-0.8-0.6-0.9c-0.3-0.2-0.7-0.3-1.2-0.3l-0.7,0
		v2.3h-0.8V62z M17.7,62.7v1.8h0.9c1,0,1.5-0.3,1.5-0.9c0-0.6-0.5-0.9-1.6-0.9L17.7,62.7z"/>
	<polygon points="30.3,62 30.3,62.7 27.7,62.7 27.7,64.3 30.3,64.3 30.3,65 27.7,65 27.7,66.7 30.4,66.7 30.4,67.4 26.8,67.4 
		26.8,62 	"/>
	<polygon points="41.5,62 41.5,67.4 40.4,67.4 36.8,63 36.8,67.4 36,67.4 36,62 37.1,62 40.7,66.5 40.7,62 	"/>
	<polygon points="52.2,62 52.2,62.7 49.9,62.7 49.9,67.4 49.1,67.4 49.1,62.7 46.8,62.7 46.8,62 	"/>
	<path d="M63.9,62h1.9c1.3,0,2,0.4,2,1.3c0,0.6-0.4,1-1.1,1.2l-0.1,0l0.1,0c0.9,0.1,1.4,0.6,1.4,1.3c0,1-0.7,1.5-2,1.5h-2.2V62z
		 M64.7,62.7v1.6l1,0c0.9,0,1.3-0.3,1.3-0.8c0-0.5-0.5-0.8-1.4-0.8H64.7z M64.7,64.9v1.8l1.2,0c0.9,0,1.4-0.3,1.4-0.9
		c0-0.6-0.5-0.9-1.6-0.9L64.7,64.9z"/>
	<polygon points="76.9,62 76.9,62.7 74.3,62.7 74.3,64.3 76.8,64.3 76.8,65 74.3,65 74.3,66.7 77,66.7 77,67.4 73.5,67.4 73.5,62 	
		"/>
	<polygon points="87.1,62 87.1,62.7 84.9,62.7 84.9,67.4 84.1,67.4 84.1,62.7 81.8,62.7 81.8,62 	"/>
	<polygon points="96.9,62 96.9,62.7 94.7,62.7 94.7,67.4 93.9,67.4 93.9,62.7 91.7,62.7 91.7,62 	"/>
	<polygon points="105.5,62 105.5,62.7 102.9,62.7 102.9,64.3 105.5,64.3 105.5,65 102.9,65 102.9,66.7 105.6,66.7 105.6,67.4 
		102.1,67.4 102.1,62 	"/>
	<path d="M111.2,62h1.8c1.5,0,2.3,0.5,2.3,1.4c0,0.8-0.4,1.2-1.3,1.4l-0.1,0l0.1,0c0.5,0.1,0.7,0.2,0.9,0.4c0.1,0.1,0.3,0.5,0.5,1.1
		l0.3,0.7c0,0.1,0.1,0.3,0.2,0.4h-0.9c0-0.1-0.1-0.2-0.1-0.3l-0.3-0.8c-0.1-0.5-0.4-0.8-0.6-0.9c-0.3-0.2-0.6-0.3-1.2-0.3l-0.7,0
		v2.3h-0.8V62z M112,62.7v1.8h0.9c1,0,1.5-0.3,1.5-0.9c0-0.6-0.5-0.9-1.6-0.9L112,62.7z"/>
	<polygon class="st0" points="68.8,70.5 68.8,71.2 66.7,71.2 66.7,75.9 66,75.9 66,71.2 63.9,71.2 63.9,70.5 	"/>
	<path class="st0" d="M79.2,73.2c0,0.9-0.3,1.6-0.8,2.1c-0.5,0.5-1.3,0.8-2.2,0.8c-0.9,0-1.6-0.3-2.1-0.8c-0.5-0.5-0.8-1.2-0.8-2
		c0-0.9,0.3-1.6,0.8-2.1c0.5-0.5,1.3-0.8,2.2-0.8c0.9,0,1.6,0.3,2.1,0.8C78.9,71.7,79.2,72.4,79.2,73.2 M78.3,73.3
		c0-1.5-0.7-2.2-2-2.2c-0.7,0-1.2,0.2-1.5,0.6c-0.4,0.4-0.6,0.9-0.6,1.6c0,0.7,0.2,1.3,0.5,1.6c0.4,0.4,0.9,0.6,1.5,0.6
		c0.7,0,1.2-0.2,1.5-0.6C78.1,74.5,78.3,74,78.3,73.3"/>
	<path class="st0" d="M89.4,73.3v2.4l-0.1,0c-0.8,0.3-1.6,0.4-2.3,0.4c-1,0-1.7-0.3-2.3-0.8c-0.5-0.5-0.8-1.2-0.8-2.1
		c0-0.9,0.3-1.6,0.8-2.1c0.5-0.5,1.3-0.8,2.2-0.8c1.3,0,2.1,0.5,2.4,1.4h-0.9l0-0.1C88.2,71.3,87.7,71,87,71c-0.7,0-1.2,0.2-1.6,0.6
		c-0.4,0.4-0.6,0.9-0.6,1.6c0,0.7,0.2,1.3,0.6,1.7c0.4,0.4,1,0.6,1.8,0.6c0.4,0,0.9-0.1,1.4-0.2l0.2,0v-1.3h-1.3v-0.6H89.4z"/>
	<polygon class="st0" points="98,70.5 98,71.2 95.5,71.2 95.5,72.8 97.9,72.8 97.9,73.5 95.5,73.5 95.5,75.2 98,75.2 98,75.9 
		94.7,75.9 94.7,70.5 	"/>
	<polygon class="st0" points="107.5,70.5 107.5,71.2 105.5,71.2 105.5,75.9 104.7,75.9 104.7,71.2 102.6,71.2 102.6,70.5 	"/>
	<polygon class="st0" points="113.1,70.5 113.1,72.8 116.6,72.8 116.6,70.5 117.4,70.5 117.4,75.9 116.6,75.9 116.6,73.5 
		113.1,73.5 113.1,75.9 112.4,75.9 112.4,70.5 	"/>
	<polygon class="st0" points="126,70.5 126,71.2 123.6,71.2 123.6,72.8 126,72.8 126,73.5 123.6,73.5 123.6,75.2 126.1,75.2 
		126.1,75.9 122.8,75.9 122.8,70.5 	"/>
	<path class="st0" d="M131.3,70.5h1.7c1.4,0,2.1,0.5,2.1,1.4c0,0.8-0.4,1.2-1.2,1.4l-0.1,0l0.1,0c0.4,0.1,0.7,0.2,0.8,0.4
		c0.1,0.1,0.3,0.5,0.5,1.1l0.2,0.7c0,0.1,0.1,0.3,0.1,0.4h-0.8c0-0.1-0.1-0.2-0.1-0.3l-0.3-0.8c-0.1-0.5-0.3-0.8-0.6-0.9
		c-0.2-0.2-0.6-0.3-1.1-0.3l-0.7,0v2.3h-0.8V70.5z M132.1,71.2V73h0.8c0.9,0,1.4-0.3,1.4-0.9c0-0.6-0.5-0.9-1.5-0.9L132.1,71.2z"/>
	<rect x="57" y="62" class="st1" width="1.1" height="14.1"/>
	<path d="M70.5,39l1-0.7c0.7,1.4,1.6,2.2,2.5,2.2c0.6,0,1.2-0.2,1.6-0.6c0.4-0.4,0.7-1,0.7-1.6c0-0.5-0.2-1-0.6-1.5
		c-0.4-0.5-1-1.1-1.9-1.8c-0.9-0.7-1.4-1.2-1.7-1.6c-0.3-0.3-0.5-0.7-0.7-1.1c-0.1-0.4-0.2-0.8-0.2-1.2c0-0.9,0.3-1.6,0.8-2.2
		c0.6-0.6,1.3-0.9,2.1-0.9c0.7,0,1.3,0.2,1.7,0.5c0.5,0.4,1,0.9,1.4,1.6l-1,0.8c-0.3-0.5-0.6-0.9-1-1.2c-0.3-0.3-0.8-0.5-1.2-0.5
		c-0.5,0-0.9,0.2-1.2,0.5c-0.3,0.3-0.5,0.7-0.5,1.2c0,0.5,0.1,0.9,0.4,1.3c0.3,0.4,0.9,0.9,1.9,1.7c1,0.8,1.7,1.5,2.1,2.2
		c0.4,0.7,0.7,1.4,0.7,2.1c0,1-0.3,1.8-1,2.5c-0.7,0.7-1.5,1.1-2.4,1.1C72.6,41.8,71.3,40.9,70.5,39"/>
	<polygon points="79,29.3 79,27.9 85.7,27.9 85.7,29.3 82.9,29.3 82.9,41.8 81.7,41.8 81.7,29.3 	"/>
	<path d="M92.4,27.9l5.7,13.8h-1.3l-1.9-4.5h-5.3l-1.9,4.5h-1.4l5.8-13.8H92.4z M92.2,30.9l-2.1,5h4.2L92.2,30.9z"/>
	<polygon points="98.8,29.3 98.8,27.9 105.5,27.9 105.5,29.3 102.7,29.3 102.7,41.8 101.5,41.8 101.5,29.3 	"/>
	<rect x="107" y="27.9" width="1.2" height="13.9"/>
	<path d="M110.5,34.9c0-1.3,0.3-2.5,0.8-3.5c0.6-1.1,1.3-1.9,2.3-2.5c1-0.6,2.1-0.9,3.2-0.9c1.2,0,2.2,0.3,3.2,0.9
		c1,0.6,1.8,1.4,2.4,2.5c0.6,1.1,0.9,2.2,0.9,3.5c0,1.3-0.3,2.4-0.8,3.5c-0.6,1.1-1.3,1.9-2.3,2.5c-1,0.6-2.1,0.9-3.2,0.9
		c-1.2,0-2.2-0.3-3.2-0.9c-1-0.6-1.8-1.4-2.4-2.5C110.8,37.3,110.5,36.2,110.5,34.9 M122.1,34.9c0-1.6-0.5-2.9-1.5-4
		c-1-1.1-2.2-1.6-3.7-1.6c-1.5,0-2.7,0.5-3.7,1.6c-1,1.1-1.5,2.4-1.5,4c0,1.6,0.5,2.9,1.5,4c1,1.1,2.2,1.6,3.7,1.6
		c1.4,0,2.6-0.5,3.6-1.6C121.6,37.8,122.1,36.5,122.1,34.9"/>
	<polygon points="125.8,41.8 125.8,27.9 126.1,27.9 134.2,38.5 134.2,27.9 135.4,27.9 135.4,41.8 135.1,41.8 127.1,31.3 127.1,41.8 
			"/>
</g>
</svg>
