<?xml version="1.0" encoding="utf-8"?>
<!-- Generator: Adobe Illustrator 22.1.0, SVG Export Plug-In . SVG Version: 6.00 Build 0)  -->
<svg version="1.1" id="Calque_1" xmlns="http://www.w3.org/2000/svg" xmlns:xlink="http://www.w3.org/1999/xlink" x="0px" y="0px"
	 viewBox="0 0 565.9 95" style="enable-background:new 0 0 565.9 95;" xml:space="preserve">
<style type="text/css">
	.st0{clip-path:url(#SVGID_2_);}
	.st1{fill:#FFFFFF;}
</style>
<g>
	<defs>
		<rect id="SVGID_1_" x="-138" y="-250.3" width="841.9" height="595.3"/>
	</defs>
	<clipPath id="SVGID_2_">
		<use xlink:href="#SVGID_1_"  style="overflow:visible;"/>
	</clipPath>
	<g class="st0">
		<path class="st1" d="M46,0.6C14.6,0.6,0,15.5,0,47c0,32.2,14.6,47.2,46,47.2s46-15,46-47.2C92,15.5,77.5,0.6,46,0.6z M72.4,61.8
			c0,0.1,0,0.3,0,0.4c0,2.5-0.5,4.6-1.3,6.4c-1.1,2.5-2.8,4.3-4.6,5.7c-1,0.7-2,1.2-3,1.6c-2.3,1-4.7,1.4-6.6,1.4h-5.5h-2.4h-6.9
			H27.7h-3.3v-4.2V57.8v-4.6V40.4v-6.7V17.5h4.2h14.5v0h5.7c0.2,0,0.3,0,0.3,0h0.1c2.2,0.1,4.2,0.5,6,1.1l0,0c0,0,0,0,0,0l0,0v0
			c2.2,0.8,4.2,2,5.7,3.7c0.8,0.8,1.4,1.8,2,2.7c2.5,4.4,2.5,9.1,2.5,9.7c0,3.1-1.2,6-2.8,8.7c-0.5,0.9-1.1,1.7-1.8,2.5
			c9,1.9,11.5,10.3,11.5,15.1V61.8z"/>
		<path class="st1" d="M58.2,49.8c-0.3,0-0.5,0-0.8,0c-2.4,2.3-4.4,3.7-4.8,4c-0.3,0.2-0.5,0.4-0.8,0.5c-0.8,0.4-1.6,0.6-2.4,0.6
			c-0.4,0-0.7,0-1.1-0.1c-1.2-0.2-2-0.8-2.3-1c-0.2-0.2-0.5-0.3-0.7-0.5l18.6,17.7c2.3-1.6,4.3-4.3,4.3-9.1V61c0-0.2,0-0.5-0.1-0.9
			C67.9,57.4,66.4,50.4,58.2,49.8z"/>
		<path class="st1" d="M37.1,34.4c0,0-0.4,3.9,3.9,9.2c1.7,2.1,4,4.3,7.4,6.7l0.1,0.1l0,0c0,0,0.2,0.2,0.5,0.2c0.1,0,0.2,0,0.2,0
			c0.2,0,0.4,0,0.7-0.3l0.1-0.1c0.1,0,5.3-3.6,8.5-8.4l0.2-0.3c1.4-2.1,2.4-4.5,2.4-6.8l0-0.1c0,0,0-1.3-0.3-3c0,0,0,0,0,0
			c-0.4-1.9-1.2-4.4-3-6.4c-0.9-1-2-1.7-3.2-2.3c-1.6-0.7-3.4-1.1-5.5-1.2c-1.7,0-9,0.4-11.3,7.6c-0.4,1.3-0.7,2.9-0.7,4.7
			L37.1,34.4z"/>
		<path class="st1" d="M37.6,46.1c-4.9-6.1-4.8-11-4.7-12.1c0-3.2,0.6-5.8,1.6-7.8c0.6-1.3,1.3-2.3,2.1-3.3c0.4-0.4,0.7-0.8,1.1-1.1
			H31c0,0,0,0,0,0h0c0,0,0,0,0,0h-2.4v7.5c0,0,0,0,0,0h0c0,0,0,0,0,0v0v24v2.3V73h13.2h7.3h0.3h7.6c0.6,0,4.1-0.1,7-2.1L45.3,53.2
			l0,0C41.9,50.8,39.4,48.3,37.6,46.1z"/>
		<rect x="456.7" y="35.1" class="st1" width="13" height="40.7"/>
		<path class="st1" d="M443,65.5c-3.6,0-5.4-2-5.4-5.9V45.4h12V35.1h-12v-12h-13v12h-7.4v10.3h7.4v15.4c0,5.3,1.4,9.3,4.3,12.1
			c2.8,2.8,6.8,4.1,12,4.1c3.7,0,7.4-1,11.1-3l-3-10.2C447,64.9,445,65.5,443,65.5z"/>
		<path class="st1" d="M463.2,15.8c-2.2,0-3.9,0.7-5.4,2.1s-2.1,3.2-2.1,5.2s0.7,3.8,2.1,5.2c1.4,1.4,3.2,2.1,5.4,2.1
			c2.2,0,4-0.7,5.4-2.1c1.4-1.4,2.2-3.1,2.2-5.2c0-2-0.7-3.7-2.2-5.2C467.1,16.5,465.3,15.8,463.2,15.8z"/>
		<path class="st1" d="M498,34.1c-6.3,0-11.7,2-16,6c-4.4,4-6.5,9.1-6.5,15.4c0,6.3,2.2,11.5,6.5,15.5c4.4,4,9.7,6,16,6
			c6.2,0,11.5-2,15.8-6c4.3-4,6.5-9.2,6.5-15.5c0-6.3-2.2-11.4-6.5-15.4C509.5,36.1,504.2,34.1,498,34.1z M504.9,63.1
			c-1.9,2-4.2,3-6.9,3c-2.8,0-5.1-1-7.1-3c-2-2-3-4.5-3-7.6c0-3.1,1-5.6,3-7.6s4.4-3,7.1-3c2.6,0,4.9,1,6.9,3s3,4.5,3,7.6
			C507.8,58.6,506.8,61.1,504.9,63.1z"/>
		<path class="st1" d="M561.5,38.6c-2.9-3.1-6.7-4.7-11.5-4.7c-5.1,0-9.2,1.7-12.5,5.1v-3.9h-13v40.7h13V57c0-3.8,0.7-6.7,2.2-8.6
			c1.5-1.9,3.6-2.8,6.2-2.8c2.1,0,3.7,0.7,5,2.2c1.3,1.5,1.9,3.4,1.9,5.8v22.2h12.9v-25C565.9,45.8,564.4,41.7,561.5,38.6z"/>
		<path class="st1" d="M319.4,51.1l-9.6-1.9c-2.1-0.4-3.1-1.4-3.1-2.8c0-0.9,0.4-1.6,1.1-2.2c0.7-0.6,1.9-0.9,3.5-0.9
			c1.9,0,3.4,0.5,4.7,1.4c1.2,0.9,1.9,2.1,2.1,3.4l11.8-2.4c-0.8-3.6-2.9-6.4-6.1-8.5c-3.3-2.1-7.4-3.2-12.4-3.2
			c-5.2,0-9.4,1.3-12.7,3.8c-3.2,2.5-4.9,5.9-4.9,10c0,6.4,3.9,10.4,11.8,11.8l8.3,1.6c2.7,0.5,4.1,1.5,4.1,3c0,0.9-0.5,1.7-1.4,2.3
			c-0.9,0.6-2.2,0.9-3.9,0.9c-4.3,0-6.7-1.6-7.2-4.8l-12.7,2.6c0.6,3.9,2.7,6.9,6.2,8.9c3.5,2,7.8,3,12.9,3c5.5,0,10-1.2,13.4-3.6
			c3.4-2.4,5.1-5.8,5.1-10.1c0-3.1-0.9-5.7-2.8-7.8C326,53.4,323.2,51.9,319.4,51.1z"/>
		<path class="st1" d="M400.2,38.4c-3.3-3-7.5-4.5-12.7-4.5c-5.5,0-10.2,2-14.1,6.1c-3.9,4.1-5.8,9.2-5.8,15.5
			c0,6.3,1.9,11.5,5.8,15.5c3.9,4,8.6,6,14.1,6c5.1,0,9.4-1.5,12.7-4.5v3.2h13V35.1h-13V38.4z M397.2,63.1c-2,2-4.3,3-7,3
			c-2.9,0-5.2-1-7.1-2.9c-1.8-1.9-2.8-4.5-2.8-7.6c0-3.1,0.9-5.6,2.8-7.6c1.8-2,4.2-3,7.1-3c2.7,0,5,1,7,3c2,2,3,4.5,3,7.5
			C400.2,58.6,399.2,61.1,397.2,63.1z"/>
		<path class="st1" d="M267.6,34.1c-6.3,0-11.7,2-16,6c-4.4,4-6.5,9.1-6.5,15.4c0,6.3,2.2,11.5,6.5,15.5c4.4,4,9.7,6,16,6
			c6.2,0,11.5-2,15.8-6c4.3-4,6.5-9.2,6.5-15.5c0-6.3-2.2-11.4-6.5-15.4C279.1,36.1,273.8,34.1,267.6,34.1z M274.5,63.1
			c-1.9,2-4.2,3-6.9,3c-2.8,0-5.1-1-7.1-3c-2-2-3-4.5-3-7.6c0-3.1,1-5.6,3-7.6s4.4-3,7.1-3c2.6,0,4.9,1,6.9,3s3,4.5,3,7.6
			C277.4,58.6,276.5,61.1,274.5,63.1z"/>
		<path class="st1" d="M358.1,65.5c-3.6,0-5.4-2-5.4-5.9V45.4h12V35.1h-12v-12h-13v12h-7.4v10.3h7.4v15.4c0,5.3,1.4,9.3,4.3,12.1
			c2.8,2.8,6.8,4.1,12,4.1c3.7,0,7.4-1,11.1-3l-3-10.2C362.1,64.9,360.1,65.5,358.1,65.5z"/>
		<path class="st1" d="M193.4,54c0,3.8-0.7,6.7-2.2,8.6c-1.5,1.9-3.6,2.8-6.2,2.8c-2.1,0-3.7-0.7-5-2.2c-1.3-1.5-1.9-3.4-1.9-5.8
			V35.1h-12.9v25c0,5.1,1.4,9.2,4.3,12.3c2.9,3.1,6.7,4.7,11.5,4.7c5.1,0,9.2-1.7,12.5-5.1v3.9h13V35.1h-13V54z"/>
		<path class="st1" d="M227.1,42.9v-7.8h-13v40.7h13V63.1c0-10.2,4.7-15.2,14-15.2h2.4l0.6-13c-0.9-0.2-1.8-0.3-2.9-0.3
			C235.2,34.6,230.5,37.4,227.1,42.9z"/>
		<path class="st1" d="M141.5,33.9c-5.1,0-9.4,1.5-12.7,4.5V17.5h-13v58.4h13v-3.2c3.3,3,7.5,4.5,12.7,4.5c5.5,0,10.2-2,14.1-6
			c3.9-4,5.8-9.2,5.8-15.5c0-6.3-1.9-11.4-5.8-15.5C151.7,36,147,33.9,141.5,33.9z M145.9,63.1c-1.8,1.9-4.2,2.9-7.1,2.9
			c-2.7,0-5-1-7-3s-3-4.5-3-7.6c0-3,1-5.5,3-7.5c2-2,4.3-3,7-3c2.9,0,5.2,1,7.1,3c1.8,2,2.8,4.5,2.8,7.6
			C148.6,58.6,147.7,61.2,145.9,63.1z"/>
	</g>
</g>
</svg>
